<mxfile host="app.diagrams.net" modified="2021-08-24T23:25:35.772Z" agent="5.0 (Windows NT 10.0; Win64; x64) AppleWebKit/537.36 (KHTML, like Gecko) Chrome/92.0.4515.159 Safari/537.36" etag="6ebuZ-FRzgLO6QShC1WN" version="14.9.9" type="github">
  <diagram id="vn4pTR67AVMcVnbnppgO" name="Page-1">
    <mxGraphModel dx="868" dy="482" grid="1" gridSize="10" guides="1" tooltips="1" connect="1" arrows="1" fold="1" page="1" pageScale="1" pageWidth="827" pageHeight="1169" math="0" shadow="0">
      <root>
        <mxCell id="0" />
        <mxCell id="1" parent="0" />
        <mxCell id="ldqYrBJW-qgbSKX7lflv-7" value="Inicio" style="swimlane;startSize=40;" parent="1" vertex="1">
          <mxGeometry x="90" y="120" width="530" height="450" as="geometry" />
        </mxCell>
        <mxCell id="ldqYrBJW-qgbSKX7lflv-8" value="Olá, qual é o seu&amp;nbsp; primeiro nome ?" style="rounded=0;whiteSpace=wrap;html=1;" parent="ldqYrBJW-qgbSKX7lflv-7" vertex="1">
          <mxGeometry y="40" width="530" height="50" as="geometry" />
        </mxCell>
        <mxCell id="ldqYrBJW-qgbSKX7lflv-9" value="guardar primeiro nome" style="whiteSpace=wrap;html=1;" parent="ldqYrBJW-qgbSKX7lflv-7" vertex="1">
          <mxGeometry y="90" width="530" height="60" as="geometry" />
        </mxCell>
        <mxCell id="ldqYrBJW-qgbSKX7lflv-10" value="Muito prazer, &quot;nome&quot;!&amp;nbsp;" style="whiteSpace=wrap;html=1;" parent="ldqYrBJW-qgbSKX7lflv-7" vertex="1">
          <mxGeometry y="150" width="530" height="60" as="geometry" />
        </mxCell>
        <mxCell id="ldqYrBJW-qgbSKX7lflv-11" value="Informe agora a sua idade" style="whiteSpace=wrap;html=1;" parent="ldqYrBJW-qgbSKX7lflv-7" vertex="1">
          <mxGeometry y="210" width="530" height="60" as="geometry" />
        </mxCell>
        <mxCell id="ldqYrBJW-qgbSKX7lflv-12" value="receber idade" style="rounded=0;whiteSpace=wrap;html=1;" parent="ldqYrBJW-qgbSKX7lflv-7" vertex="1">
          <mxGeometry y="270" width="530" height="60" as="geometry" />
        </mxCell>
        <mxCell id="ldqYrBJW-qgbSKX7lflv-14" value="FIM" style="rounded=0;whiteSpace=wrap;html=1;" parent="ldqYrBJW-qgbSKX7lflv-7" vertex="1">
          <mxGeometry y="390" width="530" height="60" as="geometry" />
        </mxCell>
        <mxCell id="ldqYrBJW-qgbSKX7lflv-15" value="O seu nome é &quot;nome&quot; e você tem &quot;idade&quot;" style="whiteSpace=wrap;html=1;" parent="ldqYrBJW-qgbSKX7lflv-7" vertex="1">
          <mxGeometry y="330" width="530" height="60" as="geometry" />
        </mxCell>
        <mxCell id="ldqYrBJW-qgbSKX7lflv-23" value="&lt;span style=&quot;color: rgb(32 , 33 , 36) ; font-family: &amp;#34;roboto&amp;#34; , &amp;#34;arial&amp;#34; , sans-serif ; font-size: 13px ; text-align: left ; background-color: rgb(255 , 255 , 255)&quot;&gt;Elabore um Diagrama de Chapin para ler o nome e idade de uma pessoa e mostrar o resultado na tela&lt;/span&gt;" style="text;html=1;strokeColor=none;fillColor=none;align=center;verticalAlign=middle;whiteSpace=wrap;rounded=0;" parent="1" vertex="1">
          <mxGeometry x="40" y="70" width="250" height="20" as="geometry" />
        </mxCell>
      </root>
    </mxGraphModel>
  </diagram>
</mxfile>
